<svg xmlns="http://www.w3.org/2000/svg" viewBox="0 0 512 512">
  <rect width="512" height="512" rx="128" fill="#FF8800"/>
  <path d="M384 192c0-36.5-24.8-67.4-58.6-77.9C318.7 72.8 283.4 48 245 48c-3.4 0-6.8 0-10.2 .2C226.9 17.6 195 0 160 0 107 0 64 43 64 96c0 10.9 1.8 21.3 5.1 31.1C29.6 142.1 0 182.2 0 228c0 48.3 32.5 90.1 77.8 103 2.1 48 41.7 87 90.2 87 25 0 48.2-10.3 64.9-27 16.7 16.7 39.9 27 64.9 27 48.5 0 88.1-39 90.2-87 45.3-12.9 77.8-54.7 77.8-103 0-15.6-3.5-30.3-9.5-43.7zM168 368c-26.5 0-48-21.5-48-48s21.5-48 48-48 48 21.5 48 48-21.5 48-48 48zm0-144c-26.5 0-48-21.5-48-48s21.5-48 48-48 48 21.5 48 48-21.5 48-48 48zm176-24c26.5 0 48 21.5 48 48s-21.5 48-48 48-48-21.5-48-48 21.5-48 48-48zm0-128c26.5 0 48 21.5 48 48s-21.5 48-48 48-48-21.5-48-48 21.5-48 48-48z" fill="#ffffff" transform="translate(68, 68) scale(0.75)"/>
  <!-- Simple Brain Path closer to Lucide style -->
  <g transform="translate(106, 106) scale(12.5)" fill="none" stroke="white" stroke-width="2" stroke-linecap="round" stroke-linejoin="round">
    <path d="M12 5a3 3 0 1 0-5.997.125 4 4 0 0 0-2.526 5.77 4 4 0 0 0 .556 6.588A4 4 0 1 0 12 18Z"/>
    <path d="M12 5a3 3 0 1 1 5.997.125 4 4 0 0 1 2.526 5.77 4 4 0 0 1-.556 6.588A4 4 0 1 1 12 18Z"/>
    <path d="M15 13a4.5 4.5 0 0 1-3-4 4.5 4.5 0 0 1-3 4"/>
    <path d="M17.599 6.5a3 3 0 0 0 .399-1.375"/>
    <path d="M6.003 5.125A3 3 0 0 0 6.401 6.5"/>
    <path d="M3.477 10.896a4 4 0 0 1 .585-.396"/>
    <path d="M19.938 10.5a4 4 0 0 1 .585.396"/>
    <path d="M6 18a4 4 0 0 1-1.97-3.465"/>
    <path d="M19.97 14.535A4 4 0 0 1 18 18"/>
  </g>
</svg>
